<svg xmlns="http://www.w3.org/2000/svg" xmlns:xlink="http://www.w3.org/1999/xlink" width="36.51851854468248" height="36.51852278323497" style=""><rect id="backgroundrect" width="100%" height="100%" x="0" y="0" fill="none" stroke="none" class="" style=""/><defs><path id="a" d="M6.84 89.634h7.037v3.53H-.196v-7.06h14.073z"/></defs><clipPath id="b"><use xlink:href="#a" overflow="visible" id="svg_1"/></clipPath><linearGradient id="c" x1="-0.000023403051482583312" y1="0.5000485598418496" x2="0.9999765969485174" y2="0.5000485598418496"><stop offset="0" stop-color="#E43428"/><stop offset="1" stop-color="#B2071B"/></linearGradient><linearGradient id="d" x1="0.48958704028469385" y1="-0.12543954240705144" x2="0.48958704028469385" y2="0.5952523026694343"><stop offset="0" stop-color="#FFED00"/><stop offset="1" stop-color="#FFCE00"/></linearGradient><linearGradient id="e" x1="0.5007480319307505" y1="-0.15130536470005196" x2="0.5007480319307505" y2="0.5837591808078458"><stop offset="0" stop-color="#FFED00"/><stop offset="1" stop-color="#FFCE00"/></linearGradient><linearGradient id="f" x1="0.49946044741054574" y1="-0.14487382405495597" x2="0.49946044741054574" y2="0.5893544542073484"><stop offset="0" stop-color="#FFED00"/><stop offset="1" stop-color="#FFCE00"/></linearGradient><linearGradient id="g" x1="0.5002330079204274" y1="-0.14487382405495597" x2="0.5002330079204274" y2="0.5893544542073484"><stop offset="0" stop-color="#FFED00"/><stop offset="1" stop-color="#FFCE00"/></linearGradient><linearGradient id="h" x1="0.5068208419815567" y1="-0.13913855118029508" x2="0.5068208419815567" y2="0.5828620126957547"><stop offset="0" stop-color="#FFED00"/><stop offset="1" stop-color="#FFCE00"/></linearGradient><linearGradient id="i" x1="0.4926884015200635" y1="-0.13388869180169513" x2="0.4926884015200635" y2="0.5887896804195535"><stop offset="0" stop-color="#FFED00"/><stop offset="1" stop-color="#FFCE00"/></linearGradient><linearGradient id="j" x1="0.49507630107750616" y1="-0.17201096143922273" x2="0.49507630107750616" y2="0.580449134295425"><stop offset="0" stop-color="#FFED00"/><stop offset="1" stop-color="#FFCE00"/></linearGradient><linearGradient id="k" x1="0.5001530545435677" y1="1.0030007198207664" x2="0.5001530545435677" y2="0.002073224603438596"><stop offset="0" stop-color="#8F7222"/><stop offset=".092" stop-color="#9F7C26"/><stop offset=".247" stop-color="#B3892C"/><stop offset=".423" stop-color="#C19230"/><stop offset=".638" stop-color="#C99732"/><stop offset="1" stop-color="#C93"/></linearGradient><defs><path id="l" d="M1 196.444h37.154v21.677H1z"/></defs><clipPath id="m"><use xlink:href="#l" overflow="visible" id="svg_2"/></clipPath><defs><path id="n" d="M1 196.444h37.154v21.677H1z"/></defs><clipPath id="o"><use xlink:href="#n" overflow="visible" id="svg_3"/></clipPath><defs><path id="p" d="M11.13 178.578h.346v.346h-.345z"/></defs><clipPath id="q"><use xlink:href="#p" overflow="visible" id="svg_4"/></clipPath><defs><path id="r" d="M12.686 178.578h.346v.346h-.346z"/></defs><clipPath id="s"><use xlink:href="#r" overflow="visible" id="svg_5"/></clipPath><defs><path id="t" d="M9.354 175.78h5.48v4.682h-5.48z"/></defs><clipPath id="u"><use xlink:href="#t" overflow="visible" id="svg_6"/></clipPath><defs><path id="v" d="M10.353 176.785h.312v.313h-.312z"/></defs><clipPath id="w"><use xlink:href="#v" overflow="visible" id="svg_7"/></clipPath><defs><path id="x" d="M5.993 178.585h.345v.347h-.345z"/></defs><clipPath id="y"><use xlink:href="#x" overflow="visible" id="svg_8"/></clipPath><defs><path id="z" d="M7.547 178.585h.345v.347h-.345z"/></defs><clipPath id="A"><use xlink:href="#z" overflow="visible" id="svg_9"/></clipPath><defs><path id="B" d="M4.773 175.742h4.313v4.748H4.773z"/></defs><clipPath id="C"><use xlink:href="#B" overflow="visible" id="svg_10"/></clipPath><defs><path id="D" d="M4.632 142.572h4.56v4.346h-4.56z"/></defs><clipPath id="E"><use xlink:href="#D" overflow="visible" id="svg_11"/></clipPath><defs><path id="F" d="M7.803 145.216h.312v.313h-.312z"/></defs><clipPath id="G"><use xlink:href="#F" overflow="visible" id="svg_12"/></clipPath><defs><path id="H" d="M6.398 145.216h.312v.313h-.312z"/></defs><clipPath id="I"><use xlink:href="#H" overflow="visible" id="svg_13"/></clipPath><defs><path id="J" d="M14.307 147.07h.558v.55h-.558z"/></defs><clipPath id="K"><use xlink:href="#J" overflow="visible" id="svg_14"/></clipPath><defs><path id="L" d="M13.696 146.483h.87v.89h-.87z"/></defs><clipPath id="M"><use xlink:href="#L" overflow="visible" id="svg_15"/></clipPath><defs><path id="N" d="M13.53 146.37h.383v.383h-.382z"/></defs><clipPath id="O"><use xlink:href="#N" overflow="visible" id="svg_16"/></clipPath><defs><path id="P" d="M12.432 145.176h.344v.346h-.344z"/></defs><clipPath id="Q"><use xlink:href="#P" overflow="visible" id="svg_17"/></clipPath><defs><path id="R" d="M10.885 145.176h.344v.346h-.35z"/></defs><clipPath id="S"><use xlink:href="#R" overflow="visible" id="svg_18"/></clipPath><defs><path id="T" d="M9.602 142.59h4.52v4.463H9.6z"/></defs><clipPath id="U"><use xlink:href="#T" overflow="visible" id="svg_19"/></clipPath><defs><path id="V" d="M11.426 161.43h.385v.387h-.38z"/></defs><clipPath id="W"><use xlink:href="#V" overflow="visible" id="svg_20"/></clipPath><defs><path id="X" d="M13.16 161.43h.386v.387h-.385z"/></defs><clipPath id="Y"><use xlink:href="#X" overflow="visible" id="svg_21"/></clipPath><defs><path id="Z" d="M6.226 161.43h.385v.387h-.38z"/></defs><clipPath id="aa"><use xlink:href="#Z" overflow="visible" id="svg_22"/></clipPath><defs><path id="ab" d="M7.96 161.43h.385v.387H7.96z"/></defs><clipPath id="ac"><use xlink:href="#ab" overflow="visible" id="svg_23"/></clipPath><defs><path id="ad" d="M6.51 159.76h1.647v1.394H6.51z"/></defs><clipPath id="ae"><use xlink:href="#ad" overflow="visible" id="svg_24"/></clipPath><defs><path id="af" d="M4.96 124.37h4.897v4.46H4.96z"/></defs><clipPath id="ag"><use xlink:href="#af" overflow="visible" id="svg_25"/></clipPath><defs><path id="ah" d="M4.96 124.37h4.897v4.46H4.96z"/></defs><clipPath id="ai"><use xlink:href="#ah" overflow="visible" id="svg_26"/></clipPath><defs><path id="aj" d="M4.96 124.37h4.897v4.46H4.96z"/></defs><clipPath id="ak"><use xlink:href="#aj" overflow="visible" id="svg_27"/></clipPath><defs><path id="al" d="M11.178 127.02h1.76v.318h-1.76z"/></defs><clipPath id="am"><use xlink:href="#al" overflow="visible" id="svg_28"/></clipPath><defs><path id="an" d="M11.178 127.02h1.76v.318h-1.76z"/></defs><clipPath id="ao"><use xlink:href="#an" overflow="visible" id="svg_29"/></clipPath><defs><path id="ap" d="M9.894 124.48h5.124v5.43H9.894z"/></defs><clipPath id="aq"><use xlink:href="#ap" overflow="visible" id="svg_30"/></clipPath><defs><path id="ar" d="M10.66 275.667v-2.477c0-.1-.02-.17-.066-.22-.044-.05-.104-.074-.177-.074-.074 0-.132.023-.175.074"/></defs><defs><path id="at" d="M10.242 272.97c-.043.05-.064.12-.064.22"/></defs><clipPath id="as"><use xlink:href="#ar" overflow="visible" id="svg_31"/></clipPath><clipPath id="au" clip-path="url(#as)"><use xlink:href="#at" overflow="visible" id="svg_32"/></clipPath><linearGradient id="av" x1="-28.07545554881524" y1="0.4703144801946536" x2="28.748087238112756" y2="0.4703144801946536"><stop offset="0" stop-color="#842526"/><stop offset="1" stop-color="#7F1F22"/></linearGradient><defs><path id="aw" d="M15.66 274.58h.628v-1.728c-.195-.113-.405-.222-.63-.32v2.048z"/></defs><clipPath id="ax"><use xlink:href="#aw" overflow="visible" id="svg_33"/></clipPath><linearGradient id="ay" x1="-20.220625346250166" y1="0.548862351035256" x2="3.279321415636304" y2="0.548862351035256"><stop offset="0" stop-color="#842526"/><stop offset="1" stop-color="#7F1F22"/></linearGradient><linearGradient id="az" x1="0" y1="0.49985332135393407" x2="0.9999999354491468" y2="0.49985332135393407"><stop offset="0" stop-color="#E43428"/><stop offset="1" stop-color="#B2071B"/></linearGradient><defs><path id="aA" d="M3.08 271.45h14.73v6.797H3.08z"/></defs><clipPath id="aB"><use xlink:href="#aA" overflow="visible" id="svg_34"/></clipPath><defs><path id="aC" d="M3.08 271.45h14.73v6.797H3.08z"/></defs><clipPath id="aD"><use xlink:href="#aC" overflow="visible" id="svg_35"/></clipPath><defs><path id="aE" d="M3.08 271.45h14.73v6.797H3.08z"/></defs><clipPath id="aF"><use xlink:href="#aE" overflow="visible" id="svg_36"/></clipPath><defs><path id="aG" d="M3.08 271.45h14.73v6.797H3.08z"/></defs><clipPath id="aH"><use xlink:href="#aG" overflow="visible" id="svg_37"/></clipPath><defs><path id="aI" d="M3.08 271.45h14.73v6.797H3.08z"/></defs><clipPath id="aJ"><use xlink:href="#aI" overflow="visible" id="svg_38"/></clipPath><defs><path id="aK" d="M3.08 271.45h14.73v6.797H3.08z"/></defs><clipPath id="aL"><use xlink:href="#aK" overflow="visible" id="svg_39"/></clipPath><defs><path id="aM" d="M3.08 271.45h14.73v6.797H3.08z"/></defs><clipPath id="aN"><use xlink:href="#aM" overflow="visible" id="svg_40"/></clipPath><defs><path id="aO" d="M3.08 271.45h14.73v6.797H3.08z"/></defs><clipPath id="aP"><use xlink:href="#aO" overflow="visible" id="svg_41"/></clipPath><defs><path id="aQ" d="M3.08 271.45h14.73v6.797H3.08z"/></defs><clipPath id="aR"><use xlink:href="#aQ" overflow="visible" id="svg_42"/></clipPath><defs><path id="aS" d="M3.08 271.45h14.73v6.797H3.08z"/></defs><clipPath id="aT"><use xlink:href="#aS" overflow="visible" id="svg_43"/></clipPath><defs><path id="aU" d="M3.08 271.45h14.73v6.797H3.08z"/></defs><clipPath id="aV"><use xlink:href="#aU" overflow="visible" id="svg_44"/></clipPath><defs><path id="aW" d="M3.08 271.45h14.73v6.797H3.08z"/></defs><clipPath id="aX"><use xlink:href="#aW" overflow="visible" id="svg_45"/></clipPath><defs><path id="aY" d="M3.08 271.45h14.73v6.797H3.08z"/></defs><clipPath id="aZ"><use xlink:href="#aY" overflow="visible" id="svg_46"/></clipPath><defs><path id="ba" d="M3.08 271.45h14.73v6.797H3.08z"/></defs><clipPath id="bb"><use xlink:href="#ba" overflow="visible" id="svg_47"/></clipPath><defs><path id="bc" d="M3.08 271.45h14.73v6.797H3.08z"/></defs><clipPath id="bd"><use xlink:href="#bc" overflow="visible" id="svg_48"/></clipPath><defs><path id="be" d="M3.08 271.45h14.73v6.797H3.08z"/></defs><clipPath id="bf"><use xlink:href="#be" overflow="visible" id="svg_49"/></clipPath><defs><path id="bg" d="M3.08 271.45h14.73v6.797H3.08z"/></defs><clipPath id="bh"><use xlink:href="#bg" overflow="visible" id="svg_50"/></clipPath><defs><path id="bi" d="M3.08 271.45h14.73v6.797H3.08z"/></defs><clipPath id="bj"><use xlink:href="#bi" overflow="visible" id="svg_51"/></clipPath><defs><path id="bk" d="M3.08 271.45h14.73v6.797H3.08z"/></defs><clipPath id="bl"><use xlink:href="#bk" overflow="visible" id="svg_52"/></clipPath><defs><path id="bm" d="M3.08 271.45h14.73v6.797H3.08z"/></defs><clipPath id="bn"><use xlink:href="#bm" overflow="visible" id="svg_53"/></clipPath><defs><path id="bo" d="M3.08 271.45h14.73v6.797H3.08z"/></defs><clipPath id="bp"><use xlink:href="#bo" overflow="visible" id="svg_54"/></clipPath><defs><path id="bq" d="M9 275.996c-.015.013-.025.027-.033.042l-.03.085-.26.77-.257-.766c-.017-.054-.034-.092-.05-.114-.017-.024-.045-.036-.084-.036-.032 0-.06.01-.08.03-.02.023-.032.05-.032.074 0 .01 0 .03.004.04.004.02.008.03.013.04l.02.04.27.74.03.09c.01.03.02.05.04.07.02.02.03.04.06.05.02.01.05.02.08.02s.06 0 .08-.01c.03-.01.04-.03.06-.05.02-.02.03-.04.04-.07l.03-.08.28-.74.02-.04c.01-.01.01-.02.02-.04l.01-.03c0-.02-.01-.03-.02-.05-.01-.02-.02-.03-.04-.04-.01-.01-.03-.01-.05-.01-.02 0-.04.01-.06.02"/></defs><clipPath id="br"><use xlink:href="#bq" overflow="visible" id="svg_55"/></clipPath><linearGradient id="bs" x1="0.5052086657378823" y1="-0.14033812447563057" x2="0.5052086657378823" y2="0.5937718214969223"><stop offset="0" stop-color="#FFF229"/><stop offset="1" stop-color="#FFCE01"/></linearGradient><defs><path id="bt" d="M9.462 276.01c-.02.023-.032.06-.032.105v1.022h.23v-1.022c0-.048-.01-.083-.032-.104-.022-.02-.05-.03-.083-.03-.034 0-.062.01-.083.04"/></defs><clipPath id="bu"><use xlink:href="#bt" overflow="visible" id="svg_56"/></clipPath><linearGradient id="bv" x1="0.531357815481048" y1="-0.13823774262643773" x2="0.531357815481048" y2="0.5935668372116923"><stop offset="0" stop-color="#FFF229"/><stop offset="1" stop-color="#FFCE01"/></linearGradient><defs><path id="bw" d="M10.876 276.01c-.02.023-.03.06-.03.105v.88c0 .05.01.086.032.108.022.02.058.034.108.034h.493v-.19h-.41v-.832c0-.047-.01-.083-.03-.104-.02-.02-.05-.03-.09-.03-.04 0-.07.01-.09.04"/></defs><clipPath id="bx"><use xlink:href="#bw" overflow="visible" id="svg_57"/></clipPath><linearGradient id="by" x1="0.5043869601654165" y1="-0.13823774262643773" x2="0.5043869601654165" y2="0.5935668372116923"><stop offset="0" stop-color="#FFF229"/><stop offset="1" stop-color="#FFCE01"/></linearGradient><defs><path id="bz" d="M10.046 276.01c-.02.023-.03.06-.03.105v.88c0 .05.01.086.032.108.02.02.057.034.108.034h.547v-.19h-.46v-.832c0-.047-.01-.083-.03-.104-.022-.02-.05-.03-.084-.03-.04 0-.07.01-.09.04"/></defs><clipPath id="bA"><use xlink:href="#bz" overflow="visible" id="svg_58"/></clipPath><linearGradient id="bB" x1="0.49795457504140056" y1="-0.13823774262643773" x2="0.49795457504140056" y2="0.5935668372116923"><stop offset="0" stop-color="#FFF229"/><stop offset="1" stop-color="#FFCE01"/></linearGradient><defs><path id="bC" d="M12.095 276.22l.172.473h-.34l.168-.472zm-.08-.225c-.02.012-.038.028-.05.048-.015.02-.027.044-.04.074l-.028.077-.292.742c-.012.027-.02.053-.026.067-.01.02-.01.033-.01.05 0 .025.01.05.03.07.02.022.04.032.08.032s.06-.01.07-.03c.01-.02.03-.058.05-.113l.05-.146h.46l.05.145.02.07c.01.02.02.04.03.05l.03.03c.01.01.02.01.04.01.03 0 .05-.01.08-.03.02-.02.03-.04.03-.07s-.02-.06-.04-.12l-.3-.73-.04-.09c-.01-.02-.02-.04-.04-.06l-.05-.05c-.03-.01-.05-.02-.08-.02-.04 0-.06 0-.09.02"/></defs><clipPath id="bD"><use xlink:href="#bC" overflow="visible" id="svg_59"/></clipPath><linearGradient id="bE" x1="0.5029733470017583" y1="-0.14033812447563057" x2="0.5029733470017583" y2="0.5937718214969223"><stop offset="0" stop-color="#FFF229"/><stop offset="1" stop-color="#FFCE01"/></linearGradient><defs><path id="bF" d="M13.114 276.018c-.074.025-.137.065-.188.118-.05.05-.09.112-.117.187-.03.074-.04.155-.04.244 0 .09.01.172.04.246.02.073.06.135.11.186.05.05.11.09.18.11.07.02.15.04.24.04.07 0 .14-.01.21-.03s.13-.05.2-.09l.06-.04c.01-.02.02-.03.03-.05 0-.02.01-.04.01-.07v-.22c0-.04-.01-.07-.02-.09-.02-.02-.04-.03-.06-.04-.02-.01-.05-.01-.08-.01h-.37v.17h.31v.18l-.15.06c-.05.02-.1.02-.15.02-.11 0-.2-.04-.26-.11-.06-.08-.09-.18-.09-.31 0-.07 0-.12.02-.17.01-.05.04-.1.07-.13.03-.04.06-.06.11-.08.04-.02.09-.03.14-.03.08 0 .17.02.24.08.05.04.06.09.1.1.03.01.07.01.1-.01.02-.02.03-.04.03-.07 0-.02-.01-.06-.03-.09-.02-.03-.04-.06-.08-.1-.04-.03-.09-.06-.14-.08-.06-.02-.13-.03-.21-.03-.1 0-.18.01-.26.04"/></defs><clipPath id="bG"><use xlink:href="#bF" overflow="visible" id="svg_60"/></clipPath><linearGradient id="bH" x1="0.4988782172029726" y1="-0.14033812447563057" x2="0.4988782172029726" y2="0.5937718214969223"><stop offset="0" stop-color="#FFF229"/><stop offset="1" stop-color="#FFCE01"/></linearGradient><defs><path id="bI" d="M14.265 275.995c-.032 0-.06.005-.08.014-.02.01-.036.02-.045.04-.01.02-.015.05-.015.08v.86c0 .05.01.08.033.1.022.02.058.03.107.03h.628c.036 0 .063-.01.082-.03.018-.02.027-.04.027-.07s-.01-.05-.027-.07c-.02-.02-.046-.03-.082-.03h-.54v-.33h.502v-.18h-.502v-.29h.52c.038 0 .065-.01.083-.02.02-.02.027-.04.027-.07s-.008-.05-.027-.07c-.017-.02-.045-.02-.082-.02h-.61v-.01z"/></defs><clipPath id="bJ"><use xlink:href="#bI" overflow="visible" id="svg_61"/></clipPath><linearGradient id="bK" x1="0.5067206421461952" y1="-0.15599973726435118" x2="0.5067206421461952" y2="0.586659528102375"><stop offset="0" stop-color="#FFF229"/><stop offset="1" stop-color="#FFCE01"/></linearGradient><defs><path id="bL" d="M2.967 271.45h14.727v6.797H2.967z"/></defs><clipPath id="bM"><use xlink:href="#bL" overflow="visible" id="svg_62"/></clipPath><defs><path id="bN" d="M2.967 271.45h14.727v6.797H2.967z"/></defs><clipPath id="bO"><use xlink:href="#bN" overflow="visible" id="svg_63"/></clipPath><g class="currentLayer" style=""><title>Layer 1</title><path fill="#005C38" d="M4.020999958992005,27.23300059509279 h0.6920000000000014 l1.463,6.95 h-0.650000000000001 l-0.3670000000000003,-1.79 h-1.6 l-0.3500000000000003,1.79 H2.5679999589920044 l1.453,-6.95 zm1.04,4.578 l-0.7030000000000006,-3.48 l-0.7020000000000006,3.48 h1.404 zm1.847,0.533 v-5.082 h0.632000000000001 v5.112 c0,0.8600000000000009 0.3550000000000003,1.3050000000000002 0.92,1.3050000000000002 c0.552,0 0.918,-0.44200000000000045 0.918,-1.3050000000000002 v-5.112 h0.643000000000001 v5.082 c0,1.228 -0.6240000000000009,1.9300000000000002 -1.562,1.9300000000000002 c-0.93,-0.0020000000000000035 -1.55,-0.7030000000000006 -1.55,-1.9300000000000002 m4.95,-4.478 H10.807999958992005 v-0.6040000000000006 h2.75 v0.6030000000000006 h-1.06 V34.17600059509277 h-0.640000000000001 m2.527,-6.92 h0.644000000000001 v3.144 h1.84 v-3.144 h0.640000000000001 v6.922 h-0.640000000000001 v-3.186 h-1.84 V34.17600059509277 h-0.640000000000001 m4.32,-6.923 h2.44 v0.6020000000000006 h-1.79 v2.5300000000000002 h1.62 v0.6000000000000006 h-1.6300000000000003 v2.58 h1.82 v0.6100000000000009 h-2.47 m3.42,-6.92 h0.650000000000001 l1.9100000000000001,5.19 v-5.19 h0.6300000000000009 V34.17600059509277 h-0.6000000000000006 l-1.96,-5.337 V34.17600059509277 h-0.6100000000000009 m5.04,-6.317 h-1.05 v-0.6040000000000006 h2.75 v0.6000000000000006 h-1.06 V34.17600059509277 h-0.640000000000001 m2.58,-6.92 h0.640000000000001 V34.17600059509277 h-0.640000000000001 zm1.73,3.56 v-0.2 c0,-2.3200000000000003 0.8800000000000009,-3.4 1.9,-3.4 c0.3200000000000005,0 0.4900000000000003,0.05000000000000008 0.7100000000000006,0.16000000000000028 v0.6850000000000012 c-0.25,-0.1460000000000002 -0.44000000000000045,-0.22000000000000025 -0.6700000000000012,-0.22000000000000025 c-0.7100000000000006,0 -1.28,0.884000000000001 -1.28,2.7800000000000002 v0.1980000000000003 c0,1.928 0.5700000000000006,2.777 1.29,2.777 c0.2400000000000002,0 0.45,-0.06800000000000013 0.6900000000000014,-0.21800000000000025 v0.644000000000001 c-0.22000000000000025,0.13 -0.45,0.19700000000000029 -0.760000000000001,0.19700000000000029 c-1.04,0 -1.86,-1.087 -1.86,-3.4 " id="svg_186" class=""/><path fill="#93C01F" d="M7.035999958992004,5.950927857156787e-7 v17.536 s0,5.5280000000000005 5.526,5.5280000000000005 H30.097999958992006 v-23.064 H7.037999958992005 z" id="svg_187" class=""/><path fill="#005C38" d="M24.663999958992004,6.351000595092785 c-3.596,2.027 -1.7240000000000002,4.84 -1.7240000000000002,4.84 c2.228,-1.057 1.7240000000000002,-4.84 1.7240000000000002,-4.84 " id="svg_188" class=""/><path fill="#005C38" d="M23.161999958992006,11.613000595092785 s1.204,1.18 2.603,-0.21400000000000022 c0,0 -2.034,-1.12 -2.603,0.21400000000000022 " id="svg_189" class=""/><path fill="#FFF" d="M26.023999958992004,17.023000595092753 L21.967999958992003,9.34600059509279 c-0.08200000000000013,-0.15200000000000022 -0.272,-0.21400000000000022 -0.4270000000000003,-0.13 c-0.15400000000000022,0.08000000000000011 -0.21200000000000022,0.27 -0.13,0.4280000000000003 l3.805,7.208 h-2.2800000000000002 l-5.993,-11.093 l-0.28,-0.52 l-0.8380000000000006,1.56 l-0.456,0.8530000000000006 l-5.02,9.37 l-0.25,0.468 h3.7600000000000002 l3.8600000000000003,-7.25 c0.08000000000000011,-0.15600000000000025 0.030000000000000054,-0.3500000000000003 -0.13,-0.43300000000000044 c-0.15000000000000022,-0.08000000000000011 -0.3500000000000003,-0.020000000000000028 -0.4300000000000003,0.14 l-3.68,6.92 H11.157999958992004 l5.506,-10.27 l5.804,10.74 l0.09000000000000018,0.17 h3.71 l-0.24600000000000022,-0.4700000000000003 z" id="svg_190" class=""/><path fill="#FFF" d="M19.903999958992003,14.663000595092797 H16.457999958992005 c-0.16500000000000029,0 -0.3000000000000003,0.134 -0.3000000000000003,0.2980000000000003 c0,0.16500000000000029 0.135,0.3000000000000003 0.3000000000000003,0.3000000000000003 h3.446 c0.16500000000000029,0 0.2980000000000003,-0.135 0.2980000000000003,-0.3000000000000003 c0,-0.16400000000000028 -0.133,-0.2980000000000003 -0.2980000000000003,-0.2980000000000003 " id="svg_191" class=""/></g></svg>