<svg xmlns="http://www.w3.org/2000/svg" xmlns:xlink="http://www.w3.org/1999/xlink" width="38" height="38.481485693869956"><rect id="backgroundrect" width="100%" height="100%" x="0" y="0" fill="none" stroke="none" class="selected" style=""/><defs><path id="a" d="M6.84 89.634h7.037v3.53H-.196v-7.06h14.073z"/></defs><clipPath id="b"><use xlink:href="#a" overflow="visible" id="svg_1"/></clipPath><linearGradient id="c" x1="-0.000023403052182402462" y1="0.5000485777854919" x2="0.9999765753746033" y2="0.5000485777854919"><stop offset="0" stop-color="#E43428"/><stop offset="1" stop-color="#B2071B"/></linearGradient><linearGradient id="d" x1="0.48958703875541687" y1="-0.12543953955173492" x2="0.48958703875541687" y2="0.595252275466919"><stop offset="0" stop-color="#FFED00"/><stop offset="1" stop-color="#FFCE00"/></linearGradient><linearGradient id="e" x1="0.5007480382919312" y1="-0.15130536258220673" x2="0.5007480382919312" y2="0.5837591886520386"><stop offset="0" stop-color="#FFED00"/><stop offset="1" stop-color="#FFCE00"/></linearGradient><linearGradient id="f" x1="0.49946045875549316" y1="-0.14487382769584656" x2="0.49946045875549316" y2="0.5893544554710388"><stop offset="0" stop-color="#FFED00"/><stop offset="1" stop-color="#FFCE00"/></linearGradient><linearGradient id="g" x1="0.500232994556427" y1="-0.14487382769584656" x2="0.500232994556427" y2="0.5893544554710388"><stop offset="0" stop-color="#FFED00"/><stop offset="1" stop-color="#FFCE00"/></linearGradient><linearGradient id="h" x1="0.5068208575248718" y1="-0.13913854956626892" x2="0.5068208575248718" y2="0.5828620195388794"><stop offset="0" stop-color="#FFED00"/><stop offset="1" stop-color="#FFCE00"/></linearGradient><linearGradient id="i" x1="0.49268838763237" y1="-0.13388869166374207" x2="0.49268838763237" y2="0.588789701461792"><stop offset="0" stop-color="#FFED00"/><stop offset="1" stop-color="#FFCE00"/></linearGradient><linearGradient id="j" x1="0.4950762987136841" y1="-0.17201095819473267" x2="0.4950762987136841" y2="0.5804491639137268"><stop offset="0" stop-color="#FFED00"/><stop offset="1" stop-color="#FFCE00"/></linearGradient><linearGradient id="k" x1="0.5001530647277832" y1="1.0030007362365723" x2="0.5001530647277832" y2="0.0020732246339321136"><stop offset="0" stop-color="#8F7222"/><stop offset=".092" stop-color="#9F7C26"/><stop offset=".247" stop-color="#B3892C"/><stop offset=".423" stop-color="#C19230"/><stop offset=".638" stop-color="#C99732"/><stop offset="1" stop-color="#C93"/></linearGradient><defs><path id="l" d="M1 196.444h37.154v21.677H1z"/></defs><clipPath id="m"><use xlink:href="#l" overflow="visible" id="svg_2"/></clipPath><defs><path id="n" d="M1 196.444h37.154v21.677H1z"/></defs><clipPath id="o"><use xlink:href="#n" overflow="visible" id="svg_3"/></clipPath><defs><path id="p" d="M11.13 178.578h.346v.346h-.345z"/></defs><clipPath id="q"><use xlink:href="#p" overflow="visible" id="svg_4"/></clipPath><defs><path id="r" d="M12.686 178.578h.346v.346h-.346z"/></defs><clipPath id="s"><use xlink:href="#r" overflow="visible" id="svg_5"/></clipPath><defs><path id="t" d="M9.354 175.78h5.48v4.682h-5.48z"/></defs><clipPath id="u"><use xlink:href="#t" overflow="visible" id="svg_6"/></clipPath><defs><path id="v" d="M10.353 176.785h.312v.313h-.312z"/></defs><clipPath id="w"><use xlink:href="#v" overflow="visible" id="svg_7"/></clipPath><defs><path id="x" d="M5.993 178.585h.345v.347h-.345z"/></defs><clipPath id="y"><use xlink:href="#x" overflow="visible" id="svg_8"/></clipPath><defs><path id="z" d="M7.547 178.585h.345v.347h-.345z"/></defs><clipPath id="A"><use xlink:href="#z" overflow="visible" id="svg_9"/></clipPath><defs><path id="B" d="M4.773 175.742h4.313v4.748H4.773z"/></defs><clipPath id="C"><use xlink:href="#B" overflow="visible" id="svg_10"/></clipPath><defs><path id="D" d="M4.632 142.572h4.56v4.346h-4.56z"/></defs><clipPath id="E"><use xlink:href="#D" overflow="visible" id="svg_11"/></clipPath><defs><path id="F" d="M7.803 145.216h.312v.313h-.312z"/></defs><clipPath id="G"><use xlink:href="#F" overflow="visible" id="svg_12"/></clipPath><defs><path id="H" d="M6.398 145.216h.312v.313h-.312z"/></defs><clipPath id="I"><use xlink:href="#H" overflow="visible" id="svg_13"/></clipPath><defs><path id="J" d="M14.307 147.07h.558v.55h-.558z"/></defs><clipPath id="K"><use xlink:href="#J" overflow="visible" id="svg_14"/></clipPath><defs><path id="L" d="M13.696 146.483h.87v.89h-.87z"/></defs><clipPath id="M"><use xlink:href="#L" overflow="visible" id="svg_15"/></clipPath><defs><path id="N" d="M13.53 146.37h.383v.383h-.382z"/></defs><clipPath id="O"><use xlink:href="#N" overflow="visible" id="svg_16"/></clipPath><defs><path id="P" d="M12.432 145.176h.344v.346h-.344z"/></defs><clipPath id="Q"><use xlink:href="#P" overflow="visible" id="svg_17"/></clipPath><defs><path id="R" d="M10.885 145.176h.344v.346h-.35z"/></defs><clipPath id="S"><use xlink:href="#R" overflow="visible" id="svg_18"/></clipPath><defs><path id="T" d="M9.602 142.59h4.52v4.463H9.6z"/></defs><clipPath id="U"><use xlink:href="#T" overflow="visible" id="svg_19"/></clipPath><defs><path id="V" d="M11.426 161.43h.385v.387h-.38z"/></defs><clipPath id="W"><use xlink:href="#V" overflow="visible" id="svg_20"/></clipPath><defs><path id="X" d="M13.16 161.43h.386v.387h-.385z"/></defs><clipPath id="Y"><use xlink:href="#X" overflow="visible" id="svg_21"/></clipPath><defs><path id="Z" d="M6.226 161.43h.385v.387h-.38z"/></defs><clipPath id="aa"><use xlink:href="#Z" overflow="visible" id="svg_22"/></clipPath><defs><path id="ab" d="M7.96 161.43h.385v.387H7.96z"/></defs><clipPath id="ac"><use xlink:href="#ab" overflow="visible" id="svg_23"/></clipPath><defs><path id="ad" d="M6.51 159.76h1.647v1.394H6.51z"/></defs><clipPath id="ae"><use xlink:href="#ad" overflow="visible" id="svg_24"/></clipPath><defs><path id="af" d="M4.96 124.37h4.897v4.46H4.96z"/></defs><clipPath id="ag"><use xlink:href="#af" overflow="visible" id="svg_25"/></clipPath><defs><path id="ah" d="M4.96 124.37h4.897v4.46H4.96z"/></defs><clipPath id="ai"><use xlink:href="#ah" overflow="visible" id="svg_26"/></clipPath><defs><path id="aj" d="M4.96 124.37h4.897v4.46H4.96z"/></defs><clipPath id="ak"><use xlink:href="#aj" overflow="visible" id="svg_27"/></clipPath><defs><path id="al" d="M11.178 127.02h1.76v.318h-1.76z"/></defs><clipPath id="am"><use xlink:href="#al" overflow="visible" id="svg_28"/></clipPath><defs><path id="an" d="M11.178 127.02h1.76v.318h-1.76z"/></defs><clipPath id="ao"><use xlink:href="#an" overflow="visible" id="svg_29"/></clipPath><defs><path id="ap" d="M9.894 124.48h5.124v5.43H9.894z"/></defs><clipPath id="aq"><use xlink:href="#ap" overflow="visible" id="svg_30"/></clipPath><defs><path id="ar" d="M10.66 275.667v-2.477c0-.1-.02-.17-.066-.22-.044-.05-.104-.074-.177-.074-.074 0-.132.023-.175.074"/></defs><defs><path id="at" d="M10.242 272.97c-.043.05-.064.12-.064.22"/></defs><clipPath id="as"><use xlink:href="#ar" overflow="visible" id="svg_31"/></clipPath><clipPath id="au" clip-path="url(#as)"><use xlink:href="#at" overflow="visible" id="svg_32"/></clipPath><linearGradient id="av" x1="-28.075454711914062" y1="0.47031447291374207" x2="28.74808692932129" y2="0.47031447291374207"><stop offset="0" stop-color="#842526"/><stop offset="1" stop-color="#7F1F22"/></linearGradient><defs><path id="aw" d="M15.66 274.58h.628v-1.728c-.195-.113-.405-.222-.63-.32v2.048z"/></defs><clipPath id="ax"><use xlink:href="#aw" overflow="visible" id="svg_33"/></clipPath><linearGradient id="ay" x1="-20.220624923706055" y1="0.5488623380661011" x2="3.2793214321136475" y2="0.5488623380661011"><stop offset="0" stop-color="#842526"/><stop offset="1" stop-color="#7F1F22"/></linearGradient><linearGradient id="az" x1="0" y1="0.49985331296920776" x2="0.9999999403953552" y2="0.49985331296920776"><stop offset="0" stop-color="#E43428"/><stop offset="1" stop-color="#B2071B"/></linearGradient><defs><path id="aA" d="M3.08 271.45h14.73v6.797H3.08z"/></defs><clipPath id="aB"><use xlink:href="#aA" overflow="visible" id="svg_34"/></clipPath><defs><path id="aC" d="M3.08 271.45h14.73v6.797H3.08z"/></defs><clipPath id="aD"><use xlink:href="#aC" overflow="visible" id="svg_35"/></clipPath><defs><path id="aE" d="M3.08 271.45h14.73v6.797H3.08z"/></defs><clipPath id="aF"><use xlink:href="#aE" overflow="visible" id="svg_36"/></clipPath><defs><path id="aG" d="M3.08 271.45h14.73v6.797H3.08z"/></defs><clipPath id="aH"><use xlink:href="#aG" overflow="visible" id="svg_37"/></clipPath><defs><path id="aI" d="M3.08 271.45h14.73v6.797H3.08z"/></defs><clipPath id="aJ"><use xlink:href="#aI" overflow="visible" id="svg_38"/></clipPath><defs><path id="aK" d="M3.08 271.45h14.73v6.797H3.08z"/></defs><clipPath id="aL"><use xlink:href="#aK" overflow="visible" id="svg_39"/></clipPath><defs><path id="aM" d="M3.08 271.45h14.73v6.797H3.08z"/></defs><clipPath id="aN"><use xlink:href="#aM" overflow="visible" id="svg_40"/></clipPath><defs><path id="aO" d="M3.08 271.45h14.73v6.797H3.08z"/></defs><clipPath id="aP"><use xlink:href="#aO" overflow="visible" id="svg_41"/></clipPath><defs><path id="aQ" d="M3.08 271.45h14.73v6.797H3.08z"/></defs><clipPath id="aR"><use xlink:href="#aQ" overflow="visible" id="svg_42"/></clipPath><defs><path id="aS" d="M3.08 271.45h14.73v6.797H3.08z"/></defs><clipPath id="aT"><use xlink:href="#aS" overflow="visible" id="svg_43"/></clipPath><defs><path id="aU" d="M3.08 271.45h14.73v6.797H3.08z"/></defs><clipPath id="aV"><use xlink:href="#aU" overflow="visible" id="svg_44"/></clipPath><defs><path id="aW" d="M3.08 271.45h14.73v6.797H3.08z"/></defs><clipPath id="aX"><use xlink:href="#aW" overflow="visible" id="svg_45"/></clipPath><defs><path id="aY" d="M3.08 271.45h14.73v6.797H3.08z"/></defs><clipPath id="aZ"><use xlink:href="#aY" overflow="visible" id="svg_46"/></clipPath><defs><path id="ba" d="M3.08 271.45h14.73v6.797H3.08z"/></defs><clipPath id="bb"><use xlink:href="#ba" overflow="visible" id="svg_47"/></clipPath><defs><path id="bc" d="M3.08 271.45h14.73v6.797H3.08z"/></defs><clipPath id="bd"><use xlink:href="#bc" overflow="visible" id="svg_48"/></clipPath><defs><path id="be" d="M3.08 271.45h14.73v6.797H3.08z"/></defs><clipPath id="bf"><use xlink:href="#be" overflow="visible" id="svg_49"/></clipPath><defs><path id="bg" d="M3.08 271.45h14.73v6.797H3.08z"/></defs><clipPath id="bh"><use xlink:href="#bg" overflow="visible" id="svg_50"/></clipPath><defs><path id="bi" d="M3.08 271.45h14.73v6.797H3.08z"/></defs><clipPath id="bj"><use xlink:href="#bi" overflow="visible" id="svg_51"/></clipPath><defs><path id="bk" d="M3.08 271.45h14.73v6.797H3.08z"/></defs><clipPath id="bl"><use xlink:href="#bk" overflow="visible" id="svg_52"/></clipPath><defs><path id="bm" d="M3.08 271.45h14.73v6.797H3.08z"/></defs><clipPath id="bn"><use xlink:href="#bm" overflow="visible" id="svg_53"/></clipPath><defs><path id="bo" d="M3.08 271.45h14.73v6.797H3.08z"/></defs><clipPath id="bp"><use xlink:href="#bo" overflow="visible" id="svg_54"/></clipPath><defs><path id="bq" d="M9 275.996c-.015.013-.025.027-.033.042l-.03.085-.26.77-.257-.766c-.017-.054-.034-.092-.05-.114-.017-.024-.045-.036-.084-.036-.032 0-.06.01-.08.03-.02.023-.032.05-.032.074 0 .01 0 .03.004.04.004.02.008.03.013.04l.02.04.27.74.03.09c.01.03.02.05.04.07.02.02.03.04.06.05.02.01.05.02.08.02s.06 0 .08-.01c.03-.01.04-.03.06-.05.02-.02.03-.04.04-.07l.03-.08.28-.74.02-.04c.01-.01.01-.02.02-.04l.01-.03c0-.02-.01-.03-.02-.05-.01-.02-.02-.03-.04-.04-.01-.01-.03-.01-.05-.01-.02 0-.04.01-.06.02"/></defs><clipPath id="br"><use xlink:href="#bq" overflow="visible" id="svg_55"/></clipPath><linearGradient id="bs" x1="0.5052086710929871" y1="-0.14033812284469604" x2="0.5052086710929871" y2="0.5937718152999878"><stop offset="0" stop-color="#FFF229"/><stop offset="1" stop-color="#FFCE01"/></linearGradient><defs><path id="bt" d="M9.462 276.01c-.02.023-.032.06-.032.105v1.022h.23v-1.022c0-.048-.01-.083-.032-.104-.022-.02-.05-.03-.083-.03-.034 0-.062.01-.083.04"/></defs><clipPath id="bu"><use xlink:href="#bt" overflow="visible" id="svg_56"/></clipPath><linearGradient id="bv" x1="0.5313578248023987" y1="-0.13823774456977844" x2="0.5313578248023987" y2="0.5935668349266052"><stop offset="0" stop-color="#FFF229"/><stop offset="1" stop-color="#FFCE01"/></linearGradient><defs><path id="bw" d="M10.876 276.01c-.02.023-.03.06-.03.105v.88c0 .05.01.086.032.108.022.02.058.034.108.034h.493v-.19h-.41v-.832c0-.047-.01-.083-.03-.104-.02-.02-.05-.03-.09-.03-.04 0-.07.01-.09.04"/></defs><clipPath id="bx"><use xlink:href="#bw" overflow="visible" id="svg_57"/></clipPath><linearGradient id="by" x1="0.5043869614601135" y1="-0.13823774456977844" x2="0.5043869614601135" y2="0.5935668349266052"><stop offset="0" stop-color="#FFF229"/><stop offset="1" stop-color="#FFCE01"/></linearGradient><defs><path id="bz" d="M10.046 276.01c-.02.023-.03.06-.03.105v.88c0 .05.01.086.032.108.02.02.057.034.108.034h.547v-.19h-.46v-.832c0-.047-.01-.083-.03-.104-.022-.02-.05-.03-.084-.03-.04 0-.07.01-.09.04"/></defs><clipPath id="bA"><use xlink:href="#bz" overflow="visible" id="svg_58"/></clipPath><linearGradient id="bB" x1="0.4979545772075653" y1="-0.13823774456977844" x2="0.4979545772075653" y2="0.5935668349266052"><stop offset="0" stop-color="#FFF229"/><stop offset="1" stop-color="#FFCE01"/></linearGradient><defs><path id="bC" d="M12.095 276.22l.172.473h-.34l.168-.472zm-.08-.225c-.02.012-.038.028-.05.048-.015.02-.027.044-.04.074l-.028.077-.292.742c-.012.027-.02.053-.026.067-.01.02-.01.033-.01.05 0 .025.01.05.03.07.02.022.04.032.08.032s.06-.01.07-.03c.01-.02.03-.058.05-.113l.05-.146h.46l.05.145.02.07c.01.02.02.04.03.05l.03.03c.01.01.02.01.04.01.03 0 .05-.01.08-.03.02-.02.03-.04.03-.07s-.02-.06-.04-.12l-.3-.73-.04-.09c-.01-.02-.02-.04-.04-.06l-.05-.05c-.03-.01-.05-.02-.08-.02-.04 0-.06 0-.09.02"/></defs><clipPath id="bD"><use xlink:href="#bC" overflow="visible" id="svg_59"/></clipPath><linearGradient id="bE" x1="0.5029733180999756" y1="-0.14033812284469604" x2="0.5029733180999756" y2="0.5937718152999878"><stop offset="0" stop-color="#FFF229"/><stop offset="1" stop-color="#FFCE01"/></linearGradient><defs><path id="bF" d="M13.114 276.018c-.074.025-.137.065-.188.118-.05.05-.09.112-.117.187-.03.074-.04.155-.04.244 0 .09.01.172.04.246.02.073.06.135.11.186.05.05.11.09.18.11.07.02.15.04.24.04.07 0 .14-.01.21-.03s.13-.05.2-.09l.06-.04c.01-.02.02-.03.03-.05 0-.02.01-.04.01-.07v-.22c0-.04-.01-.07-.02-.09-.02-.02-.04-.03-.06-.04-.02-.01-.05-.01-.08-.01h-.37v.17h.31v.18l-.15.06c-.05.02-.1.02-.15.02-.11 0-.2-.04-.26-.11-.06-.08-.09-.18-.09-.31 0-.07 0-.12.02-.17.01-.05.04-.1.07-.13.03-.04.06-.06.11-.08.04-.02.09-.03.14-.03.08 0 .17.02.24.08.05.04.06.09.1.1.03.01.07.01.1-.01.02-.02.03-.04.03-.07 0-.02-.01-.06-.03-.09-.02-.03-.04-.06-.08-.1-.04-.03-.09-.06-.14-.08-.06-.02-.13-.03-.21-.03-.1 0-.18.01-.26.04"/></defs><clipPath id="bG"><use xlink:href="#bF" overflow="visible" id="svg_60"/></clipPath><linearGradient id="bH" x1="0.49887821078300476" y1="-0.14033812284469604" x2="0.49887821078300476" y2="0.5937718152999878"><stop offset="0" stop-color="#FFF229"/><stop offset="1" stop-color="#FFCE01"/></linearGradient><defs><path id="bI" d="M14.265 275.995c-.032 0-.06.005-.08.014-.02.01-.036.02-.045.04-.01.02-.015.05-.015.08v.86c0 .05.01.08.033.1.022.02.058.03.107.03h.628c.036 0 .063-.01.082-.03.018-.02.027-.04.027-.07s-.01-.05-.027-.07c-.02-.02-.046-.03-.082-.03h-.54v-.33h.502v-.18h-.502v-.29h.52c.038 0 .065-.01.083-.02.02-.02.027-.04.027-.07s-.008-.05-.027-.07c-.017-.02-.045-.02-.082-.02h-.61v-.01z"/></defs><clipPath id="bJ"><use xlink:href="#bI" overflow="visible" id="svg_61"/></clipPath><linearGradient id="bK" x1="0.5067206621170044" y1="-0.15599973499774933" x2="0.5067206621170044" y2="0.5866595506668091"><stop offset="0" stop-color="#FFF229"/><stop offset="1" stop-color="#FFCE01"/></linearGradient><defs><path id="bL" d="M2.967 271.45h14.727v6.797H2.967z"/></defs><clipPath id="bM"><use xlink:href="#bL" overflow="visible" id="svg_62"/></clipPath><defs><path id="bN" d="M2.967 271.45h14.727v6.797H2.967z"/></defs><clipPath id="bO"><use xlink:href="#bN" overflow="visible" id="svg_63"/></clipPath><g class="currentLayer" style=""><title>Layer 1</title><path fill="#00486C" d="M11.341999953866004,32.53400126647949 v-0.2080000000000002 c0,-2.447 0.926,-3.582 2,-3.582 c0.3320000000000008,0 0.51,0.05200000000000011 0.7500000000000011,0.16700000000000043 v0.7100000000000006 c-0.272,-0.16000000000000034 -0.4700000000000003,-0.23 -0.7100000000000006,-0.23 c-0.7500000000000011,0 -1.353,0.93 -1.353,2.93 v0.2 c0,2.03 0.6040000000000006,2.92 1.354,2.92 c0.25,0 0.46,-0.08000000000000014 0.7200000000000006,-0.23 v0.6800000000000016 c-0.23,0.13 -0.4800000000000003,0.2 -0.8,0.2 c-1.11,-0.010000000000000018 -1.97,-1.15 -1.97,-3.59 m3.83,-3.75 h0.6700000000000016 v6.65 h1.7000000000000002 v0.6300000000000011 H15.163999953866005 m3.08,-1.94 v-5.36 h0.6650000000000015 v5.38 c0,0.9 0.37500000000000056,1.37 0.97,1.37 c0.5820000000000006,0 0.97,-0.4700000000000003 0.97,-1.3800000000000001 v-5.38 h0.6740000000000016 v5.35 c0,1.29 -0.6600000000000015,2.03 -1.6500000000000008,2.03 s-1.6400000000000001,-0.7400000000000011 -1.6400000000000001,-2.03 m4.51,-5.35 h0.98 c1.17,0 2.06,0.6600000000000015 2.06,1.83 v0.03000000000000006 c0,1.03 -0.5900000000000006,1.51 -1.26,1.73 c0.8,0.21000000000000021 1.35,0.7500000000000011 1.35,1.73 v0.03000000000000006 c0,1.22 -0.92,1.9300000000000002 -2.29,1.9300000000000002 H22.763999953866005 v-7.29 zm0.91,3.31 c0.9400000000000006,0 1.44,-0.51 1.44,-1.3900000000000001 v-0.020000000000000035 c0,-0.8200000000000006 -0.54,-1.28 -1.36,-1.28 h-0.3300000000000006 v2.68 h0.2400000000000002 zm-0.020000000000000035,3.35 c0.9600000000000006,0 1.56,-0.46 1.56,-1.34 v-0.03000000000000006 c0,-0.8900000000000012 -0.5700000000000006,-1.3900000000000001 -1.51,-1.3900000000000001 h-0.27 v2.75 h0.2200000000000003 z" id="svg_192" class=""/><path fill="#2BAEE5" d="M6.567999953866005,0.0020012664795103774 v18.47 s0,5.82 5.82,5.82 h18.472 v-24.292 H6.567999953866005 z" id="svg_193" class=""/><path fill="#FFF" d="M24.597999953866005,14.812001266479513 H20.893999953866004 l-0.10300000000000002,0.2 c-0.55,1.075 -1.6430000000000002,1.7440000000000002 -2.85,1.7440000000000002 c-1.7640000000000002,0 -3.198,-1.436 -3.198,-3.196 s1.4300000000000002,-3.195 3.19,-3.195 c0.8200000000000006,0 1.6,0.31000000000000055 2.19,0.8700000000000011 c0.14,0.14200000000000004 0.38000000000000056,0.132 0.52,-0.016000000000000035 c0.14,-0.14800000000000021 0.13,-0.38000000000000056 -0.020000000000000035,-0.52 c-0.7400000000000011,-0.6900000000000017 -1.6900000000000008,-1.07 -2.7,-1.07 c-2.17,0 -3.94,1.7650000000000001 -3.94,3.933 c0,2.17 1.7600000000000002,3.935 3.93,3.935 c1.4100000000000001,0 2.6900000000000004,-0.7400000000000011 3.39,-1.945 h2.77 c-0.8600000000000011,2.665 -3.33,4.487 -6.17,4.487 c-3.58,0 -6.48,-2.9050000000000002 -6.48,-6.478 s2.91,-6.48 6.48,-6.48 c2.64,0 5,1.58 6,4.02 c0.08000000000000014,0.1900000000000003 0.2900000000000003,0.28 0.4800000000000003,0.2 c0.1900000000000003,-0.08000000000000014 0.28,-0.2900000000000003 0.2,-0.4800000000000003 c-1.12,-2.73 -3.74,-4.48 -6.68,-4.48 c-3.98,0 -7.22,3.23 -7.22,7.21 s3.24,7.21 7.22,7.21 c3.34,0 6.22,-2.27 7.01,-5.51 l0.11000000000000014,-0.46 h-0.46 z" id="svg_194" class=""/><path fill="#00486C" d="M22.163999953866004,6.430001266479508 l-0.8620000000000011,-2.042 c-0.20600000000000004,-0.4880000000000003 0.134,-1.032 0.6630000000000015,-1.06 c0.53,-0.03000000000000006 0.92,0.46 0.79,0.9640000000000006 l-0.5800000000000006,2.138 zm2.947,2.3360000000000003 l1.59,-1.454 c0.38000000000000056,-0.34700000000000086 0.99,-0.21300000000000024 1.188,0.26 c0.19500000000000034,0.4700000000000003 -0.12300000000000012,0.992 -0.6300000000000011,1.03 l-2.148,0.16400000000000034 zm-1.622,-1.8370000000000002 l0.233,-0.928 c0.05600000000000008,-0.23 0.31500000000000056,-0.3200000000000006 0.505,-0.2 c0.1870000000000003,0.12000000000000002 0.19700000000000034,0.3900000000000006 0.018000000000000033,0.53 l-0.7500000000000011,0.5800000000000006 zm2.255,-0.812 l0.45,-0.8450000000000006 c0.11000000000000014,-0.2 0.3840000000000006,-0.233 0.537,-0.06300000000000014 c0.15000000000000024,0.16700000000000043 0.09600000000000027,0.43400000000000055 -0.11000000000000014,0.522 l-0.8780000000000011,0.38000000000000056 zm-0.3650000000000003,4.48 l0.9530000000000006,0.09000000000000022 c0.22700000000000034,0.020000000000000035 0.3650000000000003,0.265 0.27,0.4700000000000003 c-0.09700000000000027,0.20400000000000001 -0.3640000000000003,0.256 -0.528,0.1 l-0.6950000000000017,-0.6600000000000015 zm-5.07,-4.53 l-0.8630000000000011,-0.4130000000000003 c-0.20600000000000004,-0.09800000000000028 -0.252,-0.37000000000000055 -0.09000000000000022,-0.53 c0.16000000000000034,-0.16000000000000034 0.4280000000000003,-0.11500000000000016 0.528,0.08700000000000019 l0.4260000000000003,0.8500000000000006 z" id="svg_195" class=""/></g></svg>